<svg xmlns="http://www.w3.org/2000/svg" xmlns:xlink="http://www.w3.org/1999/xlink" width="1920" zoomAndPan="magnify" viewBox="0 0 1440 809.999993" height="1080" preserveAspectRatio="xMidYMid meet" version="1.0"><defs><clipPath id="eba2b6178e"><path d="M 436.5 121.5 L 1003.5 121.5 L 1003.5 688.5 L 436.5 688.5 Z M 436.5 121.5 " clip-rule="nonzero"/></clipPath></defs><path fill="#ffffff" d="M 904.5 643.5 C 867.269531 643.5 837 613.210938 837 576 C 837 538.769531 867.269531 508.5 904.5 508.5 C 941.710938 508.5 972 538.769531 972 576 C 972 613.210938 941.710938 643.5 904.5 643.5 Z M 904.5 499.5 C 862.3125 499.5 828 533.8125 828 576 C 828 618.1875 862.3125 652.5 904.5 652.5 C 946.6875 652.5 981 618.1875 981 576 C 981 533.8125 946.6875 499.5 904.5 499.5 " fill-opacity="1" fill-rule="nonzero"/><g clip-path="url(#eba2b6178e)"><path fill="#ffffff" d="M 762.976562 404.085938 C 772.523438 382.042969 778.796875 357.222656 781.488281 330.980469 C 795.234375 332.296875 809.277344 333 823.5 333 C 837.738281 333 851.78125 332.296875 865.546875 330.980469 C 870.378906 378.070312 886.640625 420.238281 911.230469 448.207031 C 885.566406 463.621094 855.542969 472.5 823.5 472.5 C 813.003906 472.5 802.492188 471.496094 792.210938 469.582031 C 786.902344 445.621094 776.8125 423.4375 762.976562 404.085938 Z M 683.59375 665.769531 C 650.582031 647.804688 626.34375 606.269531 618.011719 556.152344 C 689.484375 550.300781 751.324219 530.453125 787.324219 501.167969 C 787.410156 503.613281 787.5 506.039062 787.5 508.5 C 787.5 578.988281 744.625 639.632812 683.59375 665.769531 Z M 578.742188 675.246094 C 549.578125 652.304688 528.554688 607.65625 520.820312 555.378906 C 538.082031 557.101562 555.820312 558 573.75 558 C 577.898438 558 582.027344 557.894531 586.140625 557.804688 C 593.402344 608.976562 614.320312 652.816406 643.851562 677.285156 C 634.9375 678.726562 625.816406 679.5 616.5 679.5 C 603.527344 679.5 590.886719 678.003906 578.742188 675.246094 Z M 448.890625 542.441406 C 461.476562 545.835938 474.589844 548.734375 488.214844 551.039062 C 492.027344 585.597656 500.640625 617.976562 513.261719 644.710938 C 480.742188 619.996094 457.277344 583.925781 448.890625 542.441406 Z M 516.777344 369.722656 C 497.089844 407.515625 486 457.628906 486 510.75 C 486 513.226562 486.050781 515.707031 486.105469 518.183594 C 471.9375 515.390625 458.367188 511.875 445.515625 507.707031 C 445.78125 450.949219 473.851562 400.65625 516.777344 369.722656 Z M 664.679688 344.460938 C 616.851562 366.152344 583.3125 435.902344 583.3125 517.5 C 583.3125 520.488281 583.433594 523.441406 583.523438 526.394531 C 580.269531 526.464844 577.019531 526.5 573.75 526.5 C 554.640625 526.5 535.902344 525.339844 517.761719 523.175781 C 517.605469 519.046875 517.5 514.914062 517.5 510.75 C 517.5 433.351562 545.765625 364.90625 587.933594 339.925781 C 597.234375 338.363281 606.761719 337.5 616.5 337.5 C 633.234375 337.5 649.386719 339.960938 664.679688 344.460938 Z M 652.5 301.5 C 652.5 299.320312 652.585938 297.160156 652.65625 294.996094 C 680.871094 309.851562 714.074219 320.660156 750.09375 326.867188 C 748.230469 344.285156 744.433594 361.109375 738.859375 376.648438 C 715.816406 355.253906 687.179688 339.820312 655.417969 332.789062 C 653.5 322.507812 652.5 311.996094 652.5 301.5 Z M 709.066406 174.550781 C 734.484375 202.941406 750.003906 247.0625 751.359375 294.699219 C 715.339844 287.667969 683.085938 275.363281 657.929688 258.699219 C 666.4375 225.773438 684.542969 196.683594 709.066406 174.550781 Z M 911.214844 154.777344 C 881.929688 188.085938 864.457031 241.402344 864.035156 299.375 C 850.816406 300.746094 837.261719 301.5 823.5 301.5 C 809.734375 301.5 796.183594 300.746094 782.964844 299.375 C 782.542969 241.523438 765.035156 188.105469 735.765625 154.792969 C 761.429688 139.378906 791.453125 130.5 823.5 130.5 C 855.542969 130.5 885.550781 139.378906 911.214844 154.777344 Z M 989.066406 258.699219 C 963.914062 275.363281 931.65625 287.667969 895.640625 294.699219 C 896.992188 247.027344 912.515625 202.941406 937.933594 174.550781 C 962.453125 196.683594 980.558594 225.773438 989.066406 258.699219 Z M 937.933594 428.449219 C 915.855469 403.789062 901.246094 367.261719 896.90625 326.867188 C 932.921875 320.660156 966.109375 309.851562 994.339844 294.996094 C 994.410156 297.160156 994.5 299.320312 994.5 301.5 C 994.5 351.828125 972.648438 397.125 937.933594 428.449219 Z M 888.011719 328.253906 C 892.617188 370.25 907.945312 408.339844 931.078125 434.285156 C 927.15625 437.464844 923.113281 440.507812 918.929688 443.335938 C 895.007812 416.742188 879.167969 375.925781 874.492188 330.066406 C 879.027344 329.539062 883.527344 328.921875 888.011719 328.253906 Z M 873.121094 307.40625 C 877.640625 306.828125 882.140625 306.160156 886.585938 305.4375 C 886.65625 310.078125 886.851562 314.703125 887.183594 319.289062 C 882.71875 319.957031 878.238281 320.574219 873.703125 321.101562 C 873.402344 316.566406 873.210938 312.011719 873.121094 307.40625 Z M 873.070312 298.335938 C 873.683594 242.28125 890.664062 191.074219 918.929688 159.664062 C 923.113281 162.492188 927.15625 165.535156 931.078125 168.714844 C 904.023438 199.039062 887.660156 245.953125 886.605469 296.296875 C 882.140625 297.054688 877.621094 297.738281 873.070312 298.335938 Z M 993.691406 285.117188 C 965.742188 300.429688 932.429688 311.539062 896.097656 317.867188 C 895.78125 313.226562 895.585938 308.566406 895.550781 303.855469 C 932.132812 296.914062 965.089844 284.679688 991.195312 268.050781 C 992.300781 273.640625 993.144531 279.335938 993.691406 285.117188 Z M 782.839844 308.390625 C 796.113281 309.761719 809.699219 310.5 823.5 310.5 C 837.28125 310.5 850.851562 309.761719 864.140625 308.410156 C 864.246094 312.980469 864.4375 317.515625 864.753906 322.03125 C 851.253906 323.296875 837.472656 324 823.5 324 C 809.507812 324 795.707031 323.296875 782.207031 322.015625 C 782.523438 317.515625 782.734375 312.960938 782.839844 308.390625 Z M 760.394531 296.296875 C 759.320312 245.988281 742.957031 199.039062 715.921875 168.714844 C 719.839844 165.535156 723.882812 162.492188 728.066406 159.664062 C 756.332031 191.074219 773.3125 242.386719 773.929688 298.335938 C 769.375 297.738281 764.859375 297.054688 760.394531 296.296875 Z M 655.804688 268.050781 C 681.90625 284.679688 714.867188 296.914062 751.445312 303.855469 C 751.394531 308.550781 751.199219 313.207031 750.882812 317.867188 C 714.550781 311.539062 681.238281 300.429688 653.308594 285.117188 C 653.851562 279.335938 654.695312 273.640625 655.804688 268.050781 Z M 759.796875 319.289062 C 760.128906 314.683594 760.339844 310.078125 760.410156 305.4375 C 764.859375 306.160156 769.324219 306.828125 773.859375 307.40625 C 773.769531 312.011719 773.558594 316.566406 773.242188 321.082031 C 768.726562 320.554688 764.242188 319.941406 759.796875 319.289062 Z M 745.910156 383.570312 C 752.464844 366.433594 756.859375 347.695312 758.988281 328.253906 C 763.46875 328.921875 767.96875 329.539062 772.523438 330.066406 C 770.132812 353.515625 764.753906 375.75 756.683594 395.773438 C 753.273438 391.535156 749.671875 387.476562 745.910156 383.570312 Z M 615.003906 524.742188 C 614.933594 522.332031 614.8125 519.925781 614.8125 517.5 C 614.8125 438.996094 652.972656 372.464844 703.84375 361.566406 C 741.058594 383.78125 769.128906 419.710938 781.117188 462.320312 C 751.289062 495.332031 688.710938 518.414062 615.003906 524.742188 Z M 615.425781 533.707031 C 688.324219 527.464844 751.007812 504.984375 783.683594 472.640625 C 784.914062 478.351562 785.863281 484.171875 786.496094 490.09375 C 753.292969 520.117188 689.484375 541.195312 616.746094 547.222656 C 616.183594 542.777344 615.742188 538.277344 615.425781 533.707031 Z M 592.3125 517.5 C 592.3125 435.09375 629.101562 363.128906 678.144531 349.050781 C 683.050781 350.949219 687.847656 353.074219 692.542969 355.394531 C 642.375 372.761719 605.8125 439.628906 605.8125 517.5 C 605.8125 520.152344 605.933594 522.789062 606.023438 525.425781 C 601.558594 525.726562 597.039062 525.953125 592.503906 526.128906 C 592.417969 523.265625 592.3125 520.398438 592.3125 517.5 Z M 518.308594 532.316406 C 536.289062 534.390625 554.851562 535.5 573.75 535.5 C 577.160156 535.5 580.550781 535.445312 583.925781 535.375 C 584.207031 539.929688 584.59375 544.410156 585.070312 548.859375 C 581.308594 548.945312 577.546875 549 573.75 549 C 555.363281 549 537.222656 548.015625 519.589844 546.1875 C 519.0625 541.597656 518.640625 536.976562 518.308594 532.316406 Z M 495 510.75 C 495 451.722656 508.957031 396.6875 533.300781 359.191406 C 543.707031 353.355469 554.78125 348.574219 566.402344 345.007812 C 531.140625 377.824219 508.5 440.929688 508.5 510.75 C 508.5 514.527344 508.605469 518.253906 508.746094 522 C 504.140625 521.347656 499.621094 520.609375 495.121094 519.835938 C 495.050781 516.8125 495 513.789062 495 510.75 Z M 445.726562 517.183594 C 458.664062 521.242188 472.234375 524.722656 486.421875 527.449219 C 486.632812 532.230469 486.914062 536.992188 487.300781 541.703125 C 473.394531 539.296875 459.984375 536.273438 447.238281 532.6875 C 446.519531 527.589844 445.972656 522.421875 445.726562 517.183594 Z M 511.574219 554.324219 C 518.238281 601.59375 535.464844 643.234375 559.773438 669.796875 C 548.964844 665.980469 538.664062 661.128906 528.976562 655.328125 C 512.945312 627.75 501.996094 591.660156 497.40625 552.425781 C 502.101562 553.113281 506.8125 553.746094 511.574219 554.324219 Z M 496.476562 543.199219 C 496.054688 538.503906 495.71875 533.777344 495.472656 529.011719 C 500.027344 529.785156 504.597656 530.507812 509.21875 531.140625 C 509.535156 535.851562 509.941406 540.507812 510.449219 545.132812 C 505.738281 544.550781 501.082031 543.902344 496.476562 543.199219 Z M 609.011719 556.855469 C 617.183594 606.761719 640.617188 648.914062 672.855469 669.902344 C 667.246094 671.886719 661.480469 673.558594 655.628906 674.929688 C 624.777344 653.308594 602.734375 609.574219 595.195312 557.542969 C 599.816406 557.347656 604.441406 557.15625 609.011719 556.855469 Z M 594.085938 548.59375 C 593.59375 544.148438 593.207031 539.648438 592.925781 535.113281 C 597.460938 534.9375 601.980469 534.707031 606.460938 534.410156 C 606.777344 538.945312 607.21875 543.445312 607.761719 547.890625 C 603.246094 548.191406 598.675781 548.402344 594.085938 548.59375 Z M 1003.5 301.5 C 1003.5 202.253906 922.746094 121.5 823.5 121.5 C 724.253906 121.5 643.5 202.253906 643.5 301.5 C 643.5 311.363281 644.359375 321.242188 645.941406 330.945312 C 636.363281 329.363281 626.535156 328.5 616.5 328.5 C 584.066406 328.5 553.640625 337.167969 527.34375 352.230469 L 527.148438 352.089844 C 527.0625 352.230469 526.972656 352.355469 526.886719 352.496094 C 472.921875 383.609375 436.5 441.859375 436.5 508.5 C 436.5 607.746094 517.253906 688.5 616.5 688.5 C 715.746094 688.5 796.5 607.746094 796.5 508.5 C 796.5 498.460938 795.636719 488.636719 794.054688 479.054688 C 803.757812 480.636719 813.621094 481.5 823.5 481.5 C 922.746094 481.5 1003.5 400.746094 1003.5 301.5 " fill-opacity="1" fill-rule="nonzero"/></g></svg>